<?xml version="1.0" encoding="iso-8859-1"?>
<!-- Generator: Adobe Illustrator 19.0.0, SVG Export Plug-In . SVG Version: 6.00 Build 0)  -->
<svg version="1.1" id="Capa_1" xmlns="http://www.w3.org/2000/svg" xmlns:xlink="http://www.w3.org/1999/xlink" x="0px" y="0px"
	 viewBox="0 0 512 512" style="enable-background:new 0 0 512 512;" xml:space="preserve">
<g>
	<g>
		<g>
			<path d="M505.875,164.791l-44.468-15.961c-1.909-5.394-4.109-10.702-6.569-15.853c21.942-46.513,20.874-43.608,20.874-45.927
				c0-1.984-0.788-3.886-2.19-5.29c-48.243-48.246-45.571-46.643-49.743-46.643c-2.356,0,0.487-1.02-45.925,20.874
				c-5.146-2.458-10.455-4.657-15.854-6.568L346.04,4.954C344.973,1.982,342.155,0,338.998,0h-62.867
				c-3.157,0-5.975,1.982-7.041,4.953l-15.962,44.469c-5.394,1.91-10.703,4.11-15.852,6.568l-42.733-20.16
				c-2.856-1.347-6.249-0.757-8.483,1.476l-44.454,44.456c-2.231,2.232-2.823,5.627-1.476,8.482l20.16,42.733
				c-2.461,5.153-4.66,10.461-6.568,15.852l-44.47,15.962c-2.971,1.066-4.953,3.884-4.953,7.041v62.865
				c0,5.817,5.356,7.185,6.884,7.733l-6.914,19.265c-3.091,1.128-6.137,2.39-9.111,3.775l-28.465-13.429
				c-2.856-1.347-6.25-0.756-8.483,1.475l-30.643,30.643c-2.232,2.232-2.823,5.627-1.475,8.483l13.429,28.465
				c-1.388,2.978-2.649,6.025-3.774,9.11L6.123,340.853c-2.971,1.066-4.953,3.884-4.953,7.041v43.334
				c0,3.157,1.982,5.975,4.954,7.042l29.622,10.63c1.126,3.088,2.388,6.133,3.774,9.111l-13.427,28.467
				c-1.348,2.855-0.756,6.249,1.475,8.481l30.641,30.643c2.232,2.231,5.624,2.823,8.483,1.476l28.466-13.429
				c2.974,1.387,6.022,2.648,9.112,3.775l10.631,29.62c1.065,2.971,3.884,4.954,7.041,4.954h43.335c3.157,0,5.975-1.982,7.041-4.954
				l10.631-29.62c3.09-1.127,6.135-2.39,9.112-3.775l28.465,13.43c2.857,1.346,6.255,0.755,8.486-1.477l30.64-30.643
				c2.232-2.232,2.823-5.627,1.475-8.482l-13.43-28.464c1.388-2.974,2.649-6.022,3.776-9.113l18.003-6.463
				c1.264,2.482,3.814,4.092,6.653,4.092h62.867c3.157,0,5.975-1.982,7.042-4.954l15.959-44.467
				c5.399-1.91,10.708-4.11,15.855-6.568l42.732,20.16c2.074,0.977,4.487,0.95,6.542-0.077c1.551-0.775-1.585,2.129,46.394-45.856
				c2.232-2.232,2.823-5.627,1.475-8.482l-20.159-42.731c2.462-5.152,4.661-10.46,6.569-15.856l44.468-15.96
				c2.973-1.066,4.954-3.885,4.954-7.042v-62.865C510.829,168.675,508.846,165.858,505.875,164.791z M271.089,385.965
				L271.089,385.965c-41.189,14.782-26.945,6.087-38.358,28.621c-1.043,2.06-1.077,4.485-0.093,6.572l12.712,26.943l-23.199,23.201
				l-26.945-12.712c-2.087-0.984-4.512-0.95-6.572,0.093c-13.232,6.7-16.646,4.991-18.558,10.321l-10.062,28.034h-32.81
				l-10.062-28.034c-0.779-2.172-2.516-3.861-4.708-4.581c-23.717-7.787-7.655-11.856-47.366,6.879l-23.2-23.2l12.711-26.945
				c0.984-2.088,0.951-4.514-0.092-6.571c-11.264-22.25,2.984-13.782-38.357-28.621v-32.808l28.037-10.066
				c5.326-1.912,3.614-5.306,10.321-18.56c1.041-2.059,1.074-4.483,0.091-6.569l-12.711-26.943l23.2-23.2l26.944,12.711
				c2.09,0.985,4.513,0.95,6.572-0.093c22.261-11.274,13.783,2.983,28.62-38.357h32.81l10.062,28.035
				c0.779,2.17,2.515,3.86,4.706,4.58c14.118,4.639,15.312,8.248,20.425,5.834l26.946-12.712l23.198,23.201l-12.712,26.943
				c-0.984,2.088-0.951,4.513,0.093,6.572c11.265,22.248-2.983,13.78,38.357,28.622V385.965z M495.869,229.435h-0.002
				l-42.905,15.399c-5.814,2.087-3.481,6.274-13.103,25.273c-1.043,2.06-1.077,4.485-0.093,6.572l19.452,41.231l-37.009,37.012
				l-41.233-19.453c-5.623-2.652-6.72,1.912-27.136,8.613c-2.191,0.72-3.929,2.41-4.709,4.581l-15.397,42.904h-47.692
				c0.012-0.279,0.008-43.394,0.008-43.673c0-3.157-1.982-5.974-4.953-7.041l-29.622-10.634c-1.128-3.091-2.39-6.136-3.776-9.111
				c14.533-30.805,14.195-29.424,14.144-31.816c-0.04-1.888-0.794-3.738-2.19-5.132c-33.401-33.402-31.64-32.443-35.194-32.795
				c-2.746-0.273-1.232-0.596-32.397,14.107c-2.971-1.385-6.019-2.647-9.111-3.776l-10.631-29.621
				c-1.066-2.971-3.885-4.954-7.042-4.954c-46.923,0-44.236-0.194-46.016,0.497v-50.52l42.906-15.4
				c2.171-0.779,3.86-2.516,4.58-4.707c6.71-20.434,11.271-21.504,8.613-27.136l-19.452-41.232l37.012-37.013l41.231,19.452
				c5.627,2.653,6.691-1.894,27.138-8.615c2.19-0.72,3.927-2.41,4.705-4.579l15.399-42.904h52.341l15.397,42.904
				c2.106,5.865,6.133,3.412,25.274,13.103c2.06,1.043,4.485,1.077,6.571,0.092l41.235-19.453l37.008,37.01l-19.453,41.235
				c-0.984,2.088-0.951,4.513,0.093,6.571c9.698,19.151,7.233,23.164,13.103,25.272l42.905,15.399V229.435z"/>
			<path d="M163.424,309.94c-3.918-1.304-8.155,0.819-9.457,4.741c-1.304,3.921,0.819,8.155,4.741,9.458
				c19.599,6.511,32.769,24.765,32.769,45.422c0,26.392-21.473,47.864-47.866,47.864c-26.393,0-47.866-21.472-47.866-47.864
				c0-20.657,13.169-38.911,32.769-45.422c3.922-1.303,6.045-5.537,4.741-9.458c-1.302-3.921-5.535-6.045-9.457-4.741
				c-25.728,8.546-43.014,32.507-43.014,59.621c0,34.642,28.185,62.826,62.828,62.826c34.644,0,62.828-28.184,62.828-62.826
				C206.438,342.446,189.152,318.487,163.424,309.94z"/>
			<path d="M387.552,213.417c-4.03-0.891-8.029,1.65-8.923,5.684c-7.322,33.013-37.209,56.974-71.063,56.974
				c-40.147,0-72.81-32.661-72.81-72.808c0-40.148,32.662-72.811,72.81-72.811c33.853,0,63.739,23.96,71.062,56.973
				c0.896,4.034,4.895,6.578,8.923,5.684c4.034-0.895,6.578-4.891,5.684-8.923c-8.742-39.405-43.927-68.695-85.67-68.695
				c-48.397,0-87.772,39.375-87.772,87.773c0,73.489,85.816,114.676,143.063,68.156c15.334-12.459,26.124-29.891,30.38-49.083
				C394.129,218.306,391.585,214.312,387.552,213.417z"/>
			<path d="M108.698,369.68c0,19.384,15.77,35.153,35.154,35.153c19.384,0,35.154-15.77,35.154-35.153
				c0-19.385-15.77-35.155-35.154-35.155C124.468,334.525,108.698,350.296,108.698,369.68z M143.852,349.487
				c11.134,0,20.192,9.058,20.192,20.193c0,11.133-9.058,20.191-20.192,20.191c-11.134,0-20.192-9.058-20.192-20.191
				C123.66,358.545,132.719,349.487,143.852,349.487z"/>
			<path d="M307.806,146.275c-31.49,0-57.11,25.62-57.11,57.11s25.62,57.109,57.11,57.109s57.11-25.619,57.11-57.109
				S339.298,146.275,307.806,146.275z M307.806,245.532c-23.241,0-42.148-18.907-42.148-42.147s18.907-42.148,42.148-42.148
				s42.148,18.908,42.148,42.148S331.047,245.532,307.806,245.532z"/>
		</g>
	</g>
</g>
<g>
</g>
<g>
</g>
<g>
</g>
<g>
</g>
<g>
</g>
<g>
</g>
<g>
</g>
<g>
</g>
<g>
</g>
<g>
</g>
<g>
</g>
<g>
</g>
<g>
</g>
<g>
</g>
<g>
</g>
</svg>
